<?xml version="1.0" encoding="iso-8859-1"?>
<!-- Generator: Adobe Illustrator 19.0.0, SVG Export Plug-In . SVG Version: 6.00 Build 0)  -->
<svg version="1.1" id="Capa_1" xmlns="http://www.w3.org/2000/svg" xmlns:xlink="http://www.w3.org/1999/xlink" x="0px" y="0px"
	 viewBox="0 0 512 512" style="enable-background:new 0 0 512 512;" xml:space="preserve">
<path style="fill:#CF8BFC;" d="M504.393,198.679v282.568c0,12.377-10.034,22.411-22.411,22.411H255.997H30.012
	c-12.377,0-22.411-10.034-22.411-22.411V198.679c0-12.987,10.527-23.513,23.513-23.513H480.88
	C493.866,175.166,504.393,185.694,504.393,198.679z"/>
<path style="fill:#CEC1E8;" d="M477.64,184.51v269.149c0,12.496-10.129,22.626-22.625,22.626H255.997H56.98
	c-12.496,0-22.626-10.129-22.626-22.626V184.51"/>
<g>
	<path style="fill:#EDE6F5;" d="M256,179.558v296.727h-3.356c-7.046-17.763-24.373-30.314-44.63-30.314H56.979
		c-12.491,0-22.629-10.128-22.629-22.619v-269.15c0-12.501,10.139-22.629,22.629-22.629h151.035
		C234.516,131.572,256,153.056,256,179.558z"/>
	<path style="fill:#EDE6F5;" d="M477.64,154.201v269.15c0,12.491-10.128,22.619-22.629,22.619H303.986
		c-2.879,0-5.708,0.253-8.445,0.75c-16.536,2.93-30.142,14.326-36.185,29.564H256V179.558c0-23.623,17.063-43.251,39.541-47.246
		c2.748-0.487,5.566-0.74,8.445-0.74h151.025C467.512,131.572,477.64,141.7,477.64,154.201z"/>
</g>
<path style="fill:#CEC1E8;" d="M295.541,132.312V446.72c-16.536,2.93-30.142,14.326-36.185,29.564H256V179.558
	C256,155.935,273.063,136.307,295.541,132.312z"/>
<g>
	<path style="fill:#F9D366;" d="M187.31,89.504l17.349-3.517c8.191-1.661,8.191-13.367,0-15.027l-17.349-3.517
		c-17.097-3.466-30.458-16.828-33.925-33.925l-3.517-17.349c-1.661-8.191-13.367-8.191-15.027,0l-3.517,17.349
		c-3.466,17.097-16.828,30.458-33.925,33.925l-17.349,3.517c-8.191,1.661-8.191,13.367,0,15.027l17.349,3.517
		c17.097,3.466,30.458,16.828,33.925,33.925l3.517,17.349c1.661,8.191,13.367,8.191,15.027,0l3.517-17.349
		C156.85,106.333,170.213,92.97,187.31,89.504z"/>
	<path style="fill:#F9D366;" d="M419.446,189.517l20.494-4.155c9.675-1.962,9.675-15.79,0-17.752l-20.494-4.155
		c-20.196-4.095-35.981-19.879-40.075-40.075l-4.155-20.494c-1.962-9.675-15.79-9.675-17.752,0l-4.155,20.494
		c-4.095,20.196-19.879,35.981-40.075,40.075l-20.494,4.155c-9.675,1.962-9.675,15.79,0,17.752l20.494,4.155
		c20.196,4.095,35.981,19.879,40.075,40.075l4.155,20.494c1.962,9.675,15.79,9.675,17.752,0l4.155-20.494
		C383.465,209.396,399.249,193.611,419.446,189.517z"/>
</g>
<path d="M292.084,36.095c4.2,0,7.604-3.405,7.604-7.604V8.341c0-4.199-3.404-7.604-7.604-7.604s-7.604,3.405-7.604,7.604v20.15
	C284.48,32.691,287.884,36.095,292.084,36.095z"/>
<path d="M292.084,90.345c4.2,0,7.604-3.405,7.604-7.604V62.592c0-4.199-3.404-7.604-7.604-7.604s-7.604,3.405-7.604,7.604v20.149
	C284.48,86.941,287.884,90.345,292.084,90.345z"/>
<path d="M309.133,53.146h20.151c4.2,0,7.604-3.405,7.604-7.604s-3.404-7.604-7.604-7.604h-20.151c-4.2,0-7.604,3.405-7.604,7.604
	S304.934,53.146,309.133,53.146z"/>
<path d="M254.884,53.146h20.149c4.2,0,7.604-3.405,7.604-7.604s-3.404-7.604-7.604-7.604h-20.149c-4.2,0-7.604,3.405-7.604,7.604
	S250.684,53.146,254.884,53.146z"/>
<path d="M56.268,496.055H30.011c-8.163,0-14.803-6.64-14.803-14.802V198.679c0-4.199-3.404-7.604-7.604-7.604S0,194.48,0,198.679
	v282.573c0,16.548,13.462,30.01,30.011,30.01h26.257c4.2,0,7.604-3.405,7.604-7.604C63.872,499.46,60.469,496.055,56.268,496.055z"
	/>
<path d="M504.396,191.075c-4.2,0-7.604,3.405-7.604,7.604v282.573c0,8.163-6.645,14.802-14.811,14.802H263.604v-12.166h191.407
	c16.671,0,30.233-13.562,30.233-30.233v-30.304V184.506v-30.304c0-16.671-13.562-30.233-30.233-30.233h-46.844
	c-4.2,0-7.604,3.405-7.604,7.604c0,4.199,3.404,7.604,7.604,7.604h46.844c8.285,0,15.025,6.74,15.025,15.025v30.304v238.845
	c0,8.28-6.74,15.015-15.025,15.015H303.986c-15.675,0-30.11,6.437-40.382,17.316V179.558c0-22.266,18.115-40.382,40.382-40.382
	h20.033c4.2,0,7.604-3.405,7.604-7.604c0-4.199-3.404-7.604-7.604-7.604h-20.033c-20.441,0-38.329,11.098-47.986,27.577
	c-9.657-16.479-27.545-27.577-47.986-27.577h-32.233c-4.2,0-7.604,3.405-7.604,7.604c0,4.199,3.404,7.604,7.604,7.604h32.233
	c22.267,0,40.382,18.116,40.382,40.382v276.123c-10.273-10.878-24.708-17.315-40.382-17.315H56.979
	c-8.285,0-15.025-6.736-15.025-15.015V184.506v-30.304c0-8.285,6.74-15.025,15.025-15.025h53.911c4.2,0,7.604-3.405,7.604-7.604
	c0-4.199-3.404-7.604-7.604-7.604H56.979c-16.671,0-30.233,13.562-30.233,30.233v30.304v238.845v30.304
	c0,16.671,13.562,30.233,30.233,30.233h191.417v12.166H81.616c-4.2,0-7.604,3.405-7.604,7.604c0,4.199,3.404,7.604,7.604,7.604
	h400.365c16.553,0,30.019-13.462,30.019-30.01V198.679C512,194.48,508.596,191.075,504.396,191.075z M303.986,453.574h151.025
	c5.468,0,10.596-1.466,15.025-4.013v4.094c0,8.285-6.74,15.025-15.025,15.025H272.453
	C279.973,459.256,291.432,453.574,303.986,453.574z M41.954,453.655v-4.094c4.43,2.548,9.559,4.013,15.025,4.013h151.035
	c12.554,0,24.013,5.682,31.534,15.107H56.979C48.694,468.681,41.954,461.941,41.954,453.655z"/>
<path d="M204.248,193.706H81.221c-4.2,0-7.604,3.405-7.604,7.604s3.404,7.604,7.604,7.604h123.027c4.2,0,7.604-3.405,7.604-7.604
	S208.449,193.706,204.248,193.706z"/>
<path d="M204.248,230.923H81.221c-4.2,0-7.604,3.405-7.604,7.604c0,4.199,3.404,7.604,7.604,7.604h123.027
	c4.2,0,7.604-3.405,7.604-7.604C211.852,234.328,208.449,230.923,204.248,230.923z"/>
<path d="M204.248,305.357h-27.326c-4.2,0-7.604,3.405-7.604,7.604c0,4.199,3.404,7.604,7.604,7.604h27.326
	c4.2,0,7.604-3.405,7.604-7.604C211.852,308.761,208.449,305.357,204.248,305.357z"/>
<path d="M81.221,320.565h70.353c4.2,0,7.604-3.405,7.604-7.604c0-4.199-3.404-7.604-7.604-7.604H81.221
	c-4.2,0-7.604,3.405-7.604,7.604C73.617,317.16,77.022,320.565,81.221,320.565z"/>
<path d="M204.248,379.79H81.221c-4.2,0-7.604,3.405-7.604,7.604s3.404,7.604,7.604,7.604h123.027c4.2,0,7.604-3.405,7.604-7.604
	S208.449,379.79,204.248,379.79z"/>
<path d="M204.248,268.14H81.221c-4.2,0-7.604,3.405-7.604,7.604c0,4.199,3.404,7.604,7.604,7.604h123.027
	c4.2,0,7.604-3.405,7.604-7.604C211.852,271.545,208.449,268.14,204.248,268.14z"/>
<path d="M204.248,342.574H81.221c-4.2,0-7.604,3.405-7.604,7.604c0,4.199,3.404,7.604,7.604,7.604h123.027
	c4.2,0,7.604-3.405,7.604-7.604C211.852,345.978,208.449,342.574,204.248,342.574z"/>
<path d="M313.605,246.131h18.017c4.2,0,7.604-3.405,7.604-7.604c0-4.199-3.404-7.604-7.604-7.604h-18.017
	c-4.2,0-7.604,3.405-7.604,7.604C306.001,242.727,309.405,246.131,313.605,246.131z"/>
<path d="M436.632,230.923h-34.548c-4.2,0-7.604,3.405-7.604,7.604c0,4.199,3.404,7.604,7.604,7.604h34.548
	c4.2,0,7.604-3.405,7.604-7.604C444.236,234.328,440.832,230.923,436.632,230.923z"/>
<path d="M436.632,305.357H313.605c-4.2,0-7.604,3.405-7.604,7.604c0,4.199,3.404,7.604,7.604,7.604h123.027
	c4.2,0,7.604-3.405,7.604-7.604C444.236,308.761,440.832,305.357,436.632,305.357z"/>
<path d="M313.605,394.998h123.027c4.2,0,7.604-3.405,7.604-7.604s-3.404-7.604-7.604-7.604H313.605c-4.2,0-7.604,3.405-7.604,7.604
	S309.405,394.998,313.605,394.998z"/>
<path d="M436.632,268.14H313.605c-4.2,0-7.604,3.405-7.604,7.604c0,4.199,3.404,7.604,7.604,7.604h123.027
	c4.2,0,7.604-3.405,7.604-7.604C444.236,271.545,440.832,268.14,436.632,268.14z"/>
<path d="M313.605,357.782h17.876c4.2,0,7.604-3.405,7.604-7.604c0-4.199-3.404-7.604-7.604-7.604h-17.876
	c-4.2,0-7.604,3.405-7.604,7.604C306.001,354.377,309.405,357.782,313.605,357.782z"/>
<path d="M436.632,342.574h-79.803c-4.2,0-7.604,3.405-7.604,7.604c0,4.199,3.404,7.604,7.604,7.604h79.803
	c4.2,0,7.604-3.405,7.604-7.604C444.236,345.978,440.832,342.574,436.632,342.574z"/>
<path d="M78.537,93.438l17.349,3.517c14.133,2.865,25.118,13.85,27.985,27.984l3.517,17.35c1.46,7.203,7.614,12.235,14.966,12.236
	c0,0,0,0,0.001,0c7.35,0,13.505-5.032,14.967-12.236l3.517-17.349c2.865-14.133,13.85-25.118,27.985-27.984l17.348-3.517
	c7.203-1.46,12.236-7.614,12.236-14.966s-5.032-13.506-12.236-14.967l-17.348-3.517c-14.134-2.865-25.118-13.85-27.985-27.984
	l-3.517-17.349c-1.461-7.204-7.617-12.236-14.968-12.235c-7.352,0-13.505,5.032-14.966,12.236l-3.517,17.349
	c-2.865,14.133-13.849,25.118-27.985,27.984l-17.349,3.517c-7.204,1.461-12.235,7.616-12.235,14.967S71.332,91.979,78.537,93.438z
	 M81.51,78.422c0.015-0.003,0.03-0.007,0.048-0.01l17.349-3.517c20.135-4.083,35.785-19.731,39.867-39.867l3.517-17.349
	c0.003-0.018,0.007-0.033,0.011-0.048c0.03-0.002,0.068-0.002,0.101,0c0.004,0.014,0.008,0.03,0.011,0.048l3.517,17.349
	c4.082,20.135,19.732,35.784,39.867,39.867l17.348,3.517c0.018,0.003,0.033,0.007,0.049,0.01c0.002,0.033,0.002,0.068,0,0.101
	c-0.015,0.003-0.03,0.007-0.049,0.01l-17.348,3.517c-20.135,4.083-35.785,19.731-39.867,39.867l-3.517,17.348
	c-0.003,0.017-0.007,0.033-0.011,0.048c-0.033,0.002-0.07,0.002-0.102,0c-0.003-0.014-0.007-0.03-0.01-0.047l-3.517-17.35
	c-4.082-20.135-19.732-35.784-39.867-39.867l-17.349-3.516c-0.017-0.003-0.032-0.007-0.048-0.01
	C81.509,78.49,81.509,78.456,81.51,78.422z"/>
<path d="M311.723,156.003l-20.495,4.155c-7.86,1.594-13.349,8.309-13.349,16.328c0,8.02,5.489,14.734,13.349,16.328l20.495,4.155
	c17.24,3.495,30.638,16.894,34.134,34.134l4.156,20.494c1.593,7.859,8.308,13.35,16.327,13.35c8.02,0,14.734-5.49,16.327-13.35
	l4.156-20.494c3.496-17.24,16.894-30.639,34.134-34.134l20.495-4.155c7.86-1.594,13.349-8.309,13.349-16.328
	c0-8.02-5.489-14.734-13.349-16.328l-20.495-4.155c-17.24-3.496-30.639-16.894-34.134-34.134l-4.156-20.494
	c-1.593-7.859-8.308-13.35-16.327-13.35c-8.02,0-14.734,5.49-16.327,13.35l-4.156,20.494
	C342.362,139.109,328.963,152.507,311.723,156.003z M360.761,124.89l4.156-20.494c0.082-0.407,0.235-1.163,1.422-1.163
	c1.187,0,1.34,0.757,1.422,1.163l4.156,20.494c4.712,23.242,22.775,41.305,46.017,46.017l20.495,4.155
	c0.406,0.082,1.163,0.235,1.163,1.423c0,1.188-0.757,1.341-1.163,1.423l-20.495,4.155c-23.242,4.711-41.304,22.774-46.017,46.017
	l-4.156,20.494c-0.082,0.407-0.235,1.164-1.422,1.164c-1.187,0-1.34-0.757-1.422-1.164l-4.156-20.494
	c-4.712-23.242-22.775-41.305-46.017-46.017l-20.495-4.155c-0.406-0.082-1.163-0.235-1.163-1.423c0-1.188,0.757-1.341,1.163-1.423
	l20.495-4.155C337.986,166.195,356.049,148.132,360.761,124.89z"/>
<g>
</g>
<g>
</g>
<g>
</g>
<g>
</g>
<g>
</g>
<g>
</g>
<g>
</g>
<g>
</g>
<g>
</g>
<g>
</g>
<g>
</g>
<g>
</g>
<g>
</g>
<g>
</g>
<g>
</g>
</svg>
