<svg id="visual" viewBox="0 0 900 600" width="900" height="600" xmlns="http://www.w3.org/2000/svg" xmlns:xlink="http://www.w3.org/1999/xlink" version="1.1"><path d="M0 405L16.7 405.8C33.3 406.7 66.7 408.3 100 407.3C133.3 406.3 166.7 402.7 200 408.5C233.3 414.3 266.7 429.7 300 432.2C333.3 434.7 366.7 424.3 400 419.2C433.3 414 466.7 414 500 413.7C533.3 413.3 566.7 412.7 600 411.5C633.3 410.3 666.7 408.7 700 407C733.3 405.3 766.7 403.7 800 414.7C833.3 425.7 866.7 449.3 883.3 461.2L900 473L900 601L883.3 601C866.7 601 833.3 601 800 601C766.7 601 733.3 601 700 601C666.7 601 633.3 601 600 601C566.7 601 533.3 601 500 601C466.7 601 433.3 601 400 601C366.7 601 333.3 601 300 601C266.7 601 233.3 601 200 601C166.7 601 133.3 601 100 601C66.7 601 33.3 601 16.7 601L0 601Z" fill="#3e7de9"></path><path d="M0 447L16.7 456.2C33.3 465.3 66.7 483.7 100 482.7C133.3 481.7 166.7 461.3 200 456C233.3 450.7 266.7 460.3 300 468C333.3 475.7 366.7 481.3 400 486.3C433.3 491.3 466.7 495.7 500 490.7C533.3 485.7 566.7 471.3 600 466.2C633.3 461 666.7 465 700 470.7C733.3 476.3 766.7 483.7 800 482.3C833.3 481 866.7 471 883.3 466L900 461L900 601L883.3 601C866.7 601 833.3 601 800 601C766.7 601 733.3 601 700 601C666.7 601 633.3 601 600 601C566.7 601 533.3 601 500 601C466.7 601 433.3 601 400 601C366.7 601 333.3 601 300 601C266.7 601 233.3 601 200 601C166.7 601 133.3 601 100 601C66.7 601 33.3 601 16.7 601L0 601Z" fill="#579cf1"></path><path d="M0 491L16.7 499.3C33.3 507.7 66.7 524.3 100 524.7C133.3 525 166.7 509 200 507.8C233.3 506.7 266.7 520.3 300 526.3C333.3 532.3 366.7 530.7 400 531.3C433.3 532 466.7 535 500 530.5C533.3 526 566.7 514 600 507.8C633.3 501.7 666.7 501.3 700 499.7C733.3 498 766.7 495 800 499C833.3 503 866.7 514 883.3 519.5L900 525L900 601L883.3 601C866.7 601 833.3 601 800 601C766.7 601 733.3 601 700 601C666.7 601 633.3 601 600 601C566.7 601 533.3 601 500 601C466.7 601 433.3 601 400 601C366.7 601 333.3 601 300 601C266.7 601 233.3 601 200 601C166.7 601 133.3 601 100 601C66.7 601 33.3 601 16.7 601L0 601Z" fill="#7db9f6"></path><path d="M0 534L16.7 539.2C33.3 544.3 66.7 554.7 100 554.2C133.3 553.7 166.7 542.3 200 541.7C233.3 541 266.7 551 300 553.7C333.3 556.3 366.7 551.7 400 546.3C433.3 541 466.7 535 500 534.7C533.3 534.3 566.7 539.7 600 545.7C633.3 551.7 666.7 558.3 700 562C733.3 565.7 766.7 566.3 800 562.5C833.3 558.7 866.7 550.3 883.3 546.2L900 542L900 601L883.3 601C866.7 601 833.3 601 800 601C766.7 601 733.3 601 700 601C666.7 601 633.3 601 600 601C566.7 601 533.3 601 500 601C466.7 601 433.3 601 400 601C366.7 601 333.3 601 300 601C266.7 601 233.3 601 200 601C166.7 601 133.3 601 100 601C66.7 601 33.3 601 16.7 601L0 601Z" fill="#aad5f8"></path></svg>