<svg id="visual" viewBox="0 0 900 600" width="900" height="600" xmlns="http://www.w3.org/2000/svg" xmlns:xlink="http://www.w3.org/1999/xlink" version="1.1"><path d="M620 600L584 600L584 545L485 545L485 491L557 491L557 436L737 436L737 382L593 382L593 327L638 327L638 273L584 273L584 218L647 218L647 164L683 164L683 109L575 109L575 55L548 55L548 0L900 0L900 55L900 55L900 109L900 109L900 164L900 164L900 218L900 218L900 273L900 273L900 327L900 327L900 382L900 382L900 436L900 436L900 491L900 491L900 545L900 545L900 600L900 600Z" fill="#fa7268"></path><path d="M404 600L413 600L413 545L305 545L305 491L404 491L404 436L269 436L269 382L368 382L368 327L404 327L404 273L413 273L413 218L440 218L440 164L368 164L368 109L404 109L404 55L368 55L368 0L549 0L549 55L576 55L576 109L684 109L684 164L648 164L648 218L585 218L585 273L639 273L639 327L594 327L594 382L738 382L738 436L558 436L558 491L486 491L486 545L585 545L585 600L621 600Z" fill="#ea5e66"></path><path d="M206 600L269 600L269 545L224 545L224 491L215 491L215 436L179 436L179 382L224 382L224 327L206 327L206 273L260 273L260 218L233 218L233 164L161 164L161 109L224 109L224 55L233 55L233 0L369 0L369 55L405 55L405 109L369 109L369 164L441 164L441 218L414 218L414 273L405 273L405 327L369 327L369 382L270 382L270 436L405 436L405 491L306 491L306 545L414 545L414 600L405 600Z" fill="#d84a64"></path><path d="M116 600L125 600L125 545L71 545L71 491L98 491L98 436L53 436L53 382L62 382L62 327L80 327L80 273L134 273L134 218L80 218L80 164L53 164L53 109L62 109L62 55L53 55L53 0L234 0L234 55L225 55L225 109L162 109L162 164L234 164L234 218L261 218L261 273L207 273L207 327L225 327L225 382L180 382L180 436L216 436L216 491L225 491L225 545L270 545L270 600L207 600Z" fill="#c53762"></path><path d="M0 600L0 600L0 545L0 545L0 491L0 491L0 436L0 436L0 382L0 382L0 327L0 327L0 273L0 273L0 218L0 218L0 164L0 164L0 109L0 109L0 55L0 55L0 0L54 0L54 55L63 55L63 109L54 109L54 164L81 164L81 218L135 218L135 273L81 273L81 327L63 327L63 382L54 382L54 436L99 436L99 491L72 491L72 545L126 545L126 600L117 600Z" fill="#b0235f"></path></svg>